<?xml version="1.0" encoding="utf-8"?>
<!-- Generator: Adobe Illustrator 28.0.0, SVG Export Plug-In . SVG Version: 6.00 Build 0)  -->
<svg version="1.1" id="Layer_1" xmlns="http://www.w3.org/2000/svg" xmlns:xlink="http://www.w3.org/1999/xlink" x="0px" y="0px"
	 viewBox="0 0 1162.5 222.6" style="enable-background:new 0 0 1162.5 222.6;" xml:space="preserve">
<style type="text/css">
	.st0{fill-rule:evenodd;clip-rule:evenodd;fill:#FFFFFF;}
	.st1{fill:#FFFFFF;}
</style>
<g>
	<g>
		<path class="st0" d="M8.6,170.2c-4.1,18.3-6.9,35.7-8.6,52.3h161.6c-3-10.3-3.4-25.6,7-32.1c13-8,30.5,7,35.5,21
			c-3.2-13.5-14.3-43-22.5-59.5c-24.2-48.5-30.5-89.5-25.6-120.4C106.5,36.5,31.5,68.2,8.6,170.2z"/>
		<path class="st0" d="M445.6,126.2c-83.4-114.8-191-160.3-263-98.6c-9.4,28.6-16.2,77.3,8,131.4c1.1,2.5,2.2,5,3.3,7.4
			c11.7,26,19.6,43.6,21,56.2h274.4C482,190.6,468.4,157.6,445.6,126.2z"/>
	</g>
	<g>
		<path class="st1" d="M502.4,87.4v-5.6h48.8v5.6h-21.3v61.7h-6.1V87.4H502.4z"/>
		<path class="st1" d="M566.7,117.6v31.5h-5.8V81.9h5.8v24.8h0.6c1.2-2.6,3-4.7,5.5-6.3c2.5-1.6,5.6-2.3,9.4-2.3
			c3.4,0,6.4,0.7,9,2.1s4.6,3.5,6.1,6.2c1.5,2.7,2.2,6.1,2.2,10.2v32.6h-5.9v-32.3c0-4.2-1.2-7.5-3.5-9.9c-2.3-2.4-5.5-3.6-9.4-3.6
			c-2.7,0-5.1,0.6-7.2,1.7c-2.1,1.2-3.7,2.8-5,4.9C567.3,112.2,566.7,114.7,566.7,117.6z"/>
		<path class="st1" d="M632.4,150.2c-4.7,0-8.8-1.1-12.2-3.3s-6.1-5.3-8-9.2c-1.9-3.9-2.8-8.4-2.8-13.5c0-5.1,0.9-9.6,2.8-13.5
			c1.9-3.9,4.4-7,7.7-9.3c3.3-2.3,7.1-3.4,11.5-3.4c2.7,0,5.3,0.5,7.9,1.5c2.6,1,4.9,2.5,6.9,4.6c2,2,3.7,4.6,4.8,7.8
			s1.8,6.9,1.8,11.2v2.6h-39.4v-5.1h36.3l-2.7,2c0-3.7-0.6-7-1.9-9.8c-1.2-2.9-3-5.2-5.4-6.9c-2.3-1.7-5.1-2.5-8.4-2.5
			c-3.2,0-6,0.9-8.5,2.6c-2.4,1.7-4.3,4-5.7,6.8c-1.3,2.8-2,5.9-2,9.2v3c0,4,0.7,7.5,2.1,10.5c1.4,3,3.4,5.3,6,7
			c2.6,1.7,5.6,2.5,9.1,2.5c2.4,0,4.5-0.4,6.3-1.1c1.8-0.8,3.3-1.8,4.6-3c1.2-1.3,2.2-2.7,2.8-4.2l5.6,1.9c-0.8,2.1-2,4.1-3.8,5.8
			c-1.7,1.8-3.9,3.2-6.5,4.3C638.7,149.7,635.7,150.2,632.4,150.2z"/>
		<path class="st1" d="M685.6,149.2V98.7h5.6v7.8h0.5c1-2.6,2.8-4.6,5.3-6.2c2.5-1.5,5.4-2.3,8.5-2.3c0.5,0,1,0,1.6,0s1.1,0,1.5,0
			v5.9c-0.2,0-0.7-0.1-1.4-0.2c-0.7-0.1-1.4-0.1-2.2-0.1c-2.6,0-4.9,0.6-7,1.7c-2.1,1.1-3.7,2.6-4.9,4.6c-1.2,1.9-1.8,4.2-1.8,6.7
			v32.6H685.6z"/>
		<path class="st1" d="M718.6,90.1c-1.2,0-2.2-0.4-3.1-1.2c-0.9-0.8-1.3-1.8-1.3-3c0-1.2,0.4-2.2,1.3-3c0.9-0.8,1.9-1.2,3.1-1.2
			s2.2,0.4,3.1,1.2c0.8,0.8,1.3,1.8,1.3,3c0,1.1-0.4,2.1-1.3,3C720.8,89.6,719.8,90.1,718.6,90.1z M715.7,149.2V98.7h5.8v50.5H715.7
			z"/>
		<path class="st1" d="M753.3,169.1c-5.1,0-9.3-1-12.6-2.9c-3.3-1.9-5.6-4.3-7.1-7.2l4.8-3.2c0.7,1.3,1.7,2.6,2.9,3.8
			c1.2,1.2,2.8,2.2,4.8,3c2,0.8,4.4,1.2,7.2,1.2c4.5,0,8.1-1.1,10.9-3.3c2.8-2.2,4.1-5.7,4.1-10.4v-11.4h-0.6
			c-0.7,1.5-1.6,3.1-2.9,4.6c-1.3,1.5-2.9,2.8-5,3.8c-2,1-4.6,1.5-7.6,1.5c-4,0-7.6-1-10.7-3c-3.1-2-5.6-4.8-7.4-8.6
			c-1.8-3.7-2.7-8.1-2.7-13.3c0-5.1,0.9-9.6,2.6-13.5c1.7-3.9,4.2-6.9,7.3-9.1c3.1-2.2,6.8-3.3,10.9-3.3c3.1,0,5.7,0.5,7.7,1.6
			c2,1.1,3.7,2.4,4.9,4c1.2,1.6,2.2,3.1,2.9,4.7h0.6v-9.7h5.6v51.8c0,4.3-0.9,7.8-2.7,10.5c-1.8,2.8-4.3,4.8-7.4,6.1
			C760.9,168.5,757.3,169.1,753.3,169.1z M752.9,143.3c4.8,0,8.6-1.7,11.3-5.2c2.7-3.5,4.1-8.3,4.1-14.4c0-3.9-0.6-7.4-1.8-10.5
			c-1.2-3.1-2.9-5.5-5.2-7.2c-2.3-1.8-5.1-2.6-8.4-2.6c-3.4,0-6.3,0.9-8.6,2.7c-2.3,1.8-4.1,4.3-5.3,7.3c-1.2,3.1-1.8,6.5-1.8,10.3
			c0,3.9,0.6,7.3,1.8,10.2c1.2,3,3,5.3,5.3,6.9C746.7,142.5,749.6,143.3,752.9,143.3z"/>
		<path class="st1" d="M792.5,117.6v31.5h-5.8V81.9h5.8v24.8h0.6c1.2-2.6,3-4.7,5.5-6.3c2.5-1.6,5.6-2.3,9.4-2.3
			c3.4,0,6.4,0.7,9,2.1s4.6,3.5,6.1,6.2c1.5,2.7,2.2,6.1,2.2,10.2v32.6h-5.9v-32.3c0-4.2-1.2-7.5-3.5-9.9c-2.3-2.4-5.5-3.6-9.4-3.6
			c-2.7,0-5.1,0.6-7.2,1.7c-2.1,1.2-3.7,2.8-5,4.9C793.1,112.2,792.5,114.7,792.5,117.6z"/>
		<path class="st1" d="M857.6,98.7v5.1h-24.1v-5.1H857.6z M841.1,86.7h5.8V136c0,2.7,0.7,4.8,2,6.2c1.4,1.4,3.2,2.1,5.6,2.1
			c0.5,0,1.1,0,1.6-0.1c0.6-0.1,1.2-0.2,1.8-0.3l1.3,5.3c-0.7,0.3-1.5,0.5-2.4,0.6c-0.9,0.2-1.8,0.2-2.8,0.2c-3.7,0-6.8-1.2-9.3-3.5
			c-2.5-2.3-3.7-5.3-3.7-9.1V86.7z"/>
		<path class="st1" d="M905.2,150.3c-3,0-5.8-0.6-8.4-1.8c-2.5-1.2-4.5-2.9-6-5.2c-1.5-2.3-2.2-5-2.2-8.3c0-2.5,0.5-4.6,1.4-6.3
			c0.9-1.7,2.3-3.1,4-4.2c1.7-1.1,3.8-2,6.2-2.6c2.4-0.6,5-1.1,7.8-1.5c2.8-0.4,5.2-0.7,7.2-0.9c2-0.3,3.4-0.7,4.5-1.2
			c1-0.6,1.5-1.5,1.5-2.8v-1.2c0-3.5-1-6.2-3.1-8.1c-2-2-5-3-8.8-3c-3.6,0-6.6,0.8-8.9,2.4c-2.3,1.6-3.9,3.5-4.8,5.6l-5.6-2
			c1.1-2.7,2.7-4.9,4.7-6.6c2-1.7,4.3-2.9,6.8-3.6c2.5-0.7,5-1.1,7.6-1.1c1.9,0,3.9,0.3,6,0.8c2.1,0.5,4,1.4,5.8,2.6
			c1.8,1.2,3.3,3,4.4,5.2s1.7,5,1.7,8.4v34.2h-5.9v-8h-0.4c-0.7,1.5-1.7,2.9-3.1,4.3c-1.4,1.4-3.1,2.6-5.2,3.5
			C910.5,149.8,908,150.3,905.2,150.3z M906,145c3.1,0,5.8-0.7,8.1-2.1c2.3-1.4,4-3.2,5.3-5.5c1.2-2.3,1.9-4.8,1.9-7.6v-7.3
			c-0.5,0.4-1.2,0.8-2.2,1.1c-1,0.3-2.2,0.6-3.5,0.9c-1.3,0.2-2.6,0.5-4,0.6c-1.3,0.2-2.5,0.3-3.5,0.5c-2.8,0.4-5.3,0.9-7.3,1.7
			c-2,0.8-3.6,1.8-4.7,3.1c-1.1,1.3-1.6,3-1.6,5c0,3,1.1,5.4,3.3,7.1C899.9,144.1,902.6,145,906,145z"/>
		<path class="st1" d="M939.6,168V98.7h5.6v9.7h0.7c0.7-1.5,1.7-3.1,2.9-4.7c1.2-1.6,2.9-2.9,4.9-4c2-1.1,4.6-1.6,7.7-1.6
			c4.2,0,7.8,1.1,10.9,3.3c3.1,2.2,5.5,5.2,7.3,9.1c1.7,3.9,2.6,8.5,2.6,13.6c0,5.2-0.9,9.8-2.6,13.7c-1.7,3.9-4.2,7-7.3,9.2
			c-3.1,2.2-6.8,3.3-10.9,3.3c-3,0-5.6-0.5-7.7-1.6c-2.1-1.1-3.7-2.5-5-4.1s-2.2-3.2-2.9-4.7h-0.5V168H939.6z M960.8,144.9
			c3.3,0,6.1-0.9,8.4-2.8c2.3-1.9,4.1-4.4,5.3-7.5s1.8-6.7,1.8-10.6c0-3.9-0.6-7.4-1.8-10.5c-1.2-3.1-3-5.6-5.2-7.4
			c-2.3-1.8-5.1-2.8-8.5-2.8c-3.3,0-6.1,0.9-8.4,2.6c-2.3,1.8-4,4.2-5.2,7.3c-1.2,3.1-1.8,6.7-1.8,10.7c0,4,0.6,7.6,1.8,10.8
			c1.2,3.1,3,5.6,5.3,7.4C954.7,144,957.5,144.9,960.8,144.9z"/>
		<path class="st1" d="M992.1,149.2V98.7h5.6v7.8h0.5c1-2.6,2.8-4.6,5.3-6.2c2.5-1.5,5.4-2.3,8.5-2.3c0.5,0,1,0,1.6,0s1.1,0,1.5,0
			v5.9c-0.2,0-0.7-0.1-1.4-0.2c-0.7-0.1-1.4-0.1-2.2-0.1c-2.6,0-4.9,0.6-7,1.7c-2.1,1.1-3.7,2.6-4.9,4.6c-1.2,1.9-1.8,4.2-1.8,6.7
			v32.6H992.1z"/>
		<path class="st1" d="M1025.1,90.1c-1.2,0-2.2-0.4-3.1-1.2c-0.9-0.8-1.3-1.8-1.3-3c0-1.2,0.4-2.2,1.3-3c0.9-0.8,1.9-1.2,3.1-1.2
			c1.2,0,2.2,0.4,3.1,1.2c0.8,0.8,1.3,1.8,1.3,3c0,1.1-0.4,2.1-1.3,3C1027.3,89.6,1026.3,90.1,1025.1,90.1z M1022.2,149.2V98.7h5.8
			v50.5H1022.2z"/>
		<path class="st1" d="M1060.2,150.2c-4.5,0-8.4-1.1-11.8-3.4s-5.9-5.4-7.8-9.3s-2.8-8.4-2.8-13.4c0-5.1,0.9-9.6,2.8-13.5
			c1.9-3.9,4.5-7,7.8-9.3c3.3-2.3,7.2-3.4,11.6-3.4c3.4,0,6.4,0.7,9.2,2c2.7,1.3,5,3.1,6.8,5.5c1.8,2.4,2.9,5.1,3.4,8.2h-5.9
			c-0.4-1.9-1.2-3.6-2.4-5.2c-1.2-1.6-2.7-2.8-4.6-3.8s-4-1.4-6.4-1.4c-3.2,0-6.1,0.9-8.5,2.6c-2.5,1.7-4.4,4.2-5.8,7.3
			c-1.4,3.1-2.1,6.7-2.1,10.8c0,4.1,0.7,7.7,2,10.8c1.4,3.2,3.3,5.6,5.8,7.4c2.5,1.8,5.4,2.7,8.6,2.7c3.3,0,6.2-0.9,8.7-2.8
			s4-4.4,4.7-7.6h5.9c-0.4,3-1.5,5.8-3.2,8.1c-1.7,2.4-4,4.3-6.7,5.6C1066.8,149.6,1063.7,150.2,1060.2,150.2z"/>
		<path class="st1" d="M1108.8,150.2c-4.4,0-8.2-1.1-11.6-3.3c-3.3-2.2-6-5.3-7.8-9.2c-1.9-3.9-2.8-8.4-2.8-13.5
			c0-5.2,0.9-9.7,2.8-13.7c1.9-3.9,4.5-7,7.8-9.2c3.3-2.2,7.2-3.3,11.6-3.3c4.4,0,8.2,1.1,11.5,3.3s5.9,5.3,7.8,9.2
			c1.9,3.9,2.8,8.5,2.8,13.7c0,5.1-0.9,9.6-2.8,13.5s-4.5,7-7.8,9.2C1117,149.1,1113.2,150.2,1108.8,150.2z M1108.8,144.9
			c3.5,0,6.5-0.9,8.9-2.8c2.4-1.9,4.3-4.4,5.5-7.6c1.3-3.2,1.9-6.6,1.9-10.3c0-3.8-0.6-7.3-1.9-10.4c-1.3-3.2-3.1-5.7-5.6-7.6
			c-2.4-1.9-5.4-2.8-8.9-2.8c-3.5,0-6.4,1-8.9,2.9c-2.4,1.9-4.3,4.4-5.6,7.6c-1.3,3.1-1.9,6.6-1.9,10.4c0,3.7,0.6,7.2,1.9,10.3
			c1.3,3.2,3.1,5.7,5.6,7.6C1102.4,144,1105.3,144.9,1108.8,144.9z"/>
		<path class="st1" d="M1160.8,98.7v5.1h-24.1v-5.1H1160.8z M1144.3,86.7h5.8V136c0,2.7,0.7,4.8,2,6.2c1.4,1.4,3.2,2.1,5.6,2.1
			c0.5,0,1.1,0,1.6-0.1c0.6-0.1,1.2-0.2,1.8-0.3l1.3,5.3c-0.7,0.3-1.5,0.5-2.4,0.6c-0.9,0.2-1.8,0.2-2.8,0.2c-3.7,0-6.8-1.2-9.3-3.5
			c-2.5-2.3-3.7-5.3-3.7-9.1V86.7z"/>
	</g>
</g>
</svg>
