<?xml version="1.0" encoding="utf-8"?>
<!-- Generator: Adobe Illustrator 27.9.0, SVG Export Plug-In . SVG Version: 6.00 Build 0)  -->
<svg version="1.1" id="Layer_1" xmlns="http://www.w3.org/2000/svg" xmlns:xlink="http://www.w3.org/1999/xlink" x="0px" y="0px"
	 viewBox="0 0 499 522" style="enable-background:new 0 0 499 522;" xml:space="preserve">
<style type="text/css">
	.st0{fill-rule:evenodd;clip-rule:evenodd;fill:#FF8500;}
</style>
<path class="st0" d="M129,48.3c-49.6,4.9-95.6,19.9-118.6,122c-33.5,149,17.5,241.5,98,298c80.5,56.5,237.5,84,286.5,0l0.1-0.1
	c13.3-6.2,59.8-28,75.4-53.9c19.5-32.5,62-171-23-288C364,11.4,273-33.5,201,28.3c-9.4,28.6-32.7,76.6-8.5,130.7
	c1.1,2.5,2.2,5,3.3,7.4c21.2,47.1,19.7,83.9-0.1,95.6c-17,10-43-2.7-50-15.7c-4.7-8.6-11-32,11.2-42.2c13.9-6.3,30.5,7,35.5,21
	c2.3-8.5-2.8-41.6-22.5-59.5C122,121.7,124.1,79.2,129,48.3z"/>
</svg>
