<svg width="499" height="522" viewBox="0 0 499 522" fill="none" xmlns="http://www.w3.org/2000/svg">
<path fill-rule="evenodd" clip-rule="evenodd" d="M157.929 31.6384C108.297 36.5363 33.3819 68.1729 10.4369 170.227C-23.0631 319.227 27.9369 411.727 108.437 468.227C188.937 524.727 345.937 552.227 394.937 468.227L395.051 468.173C408.372 461.935 454.882 440.152 470.437 414.227C489.937 381.727 532.437 243.227 447.437 126.227C364.003 11.3829 256.482 -34.0902 184.456 27.6368C175.02 56.2155 168.291 104.915 192.5 159C193.633 161.532 194.737 163.992 195.81 166.381C216.974 213.527 225.859 233.318 206 245C189 255 173 242 166 229C161.343 220.351 157.5 198.5 170.5 190.5C183.5 182.5 201 197.5 206 211.5C202.833 198 191.736 168.473 183.5 152C159.26 103.52 153.007 62.534 157.929 31.6384Z" fill="#ffffff"/>
</svg>
