<?xml version="1.0" encoding="iso-8859-1"?>
<!-- Generator: Adobe Illustrator 28.0.0, SVG Export Plug-In . SVG Version: 6.00 Build 0)  -->
<svg version="1.1" id="Layer_1" xmlns="http://www.w3.org/2000/svg" xmlns:xlink="http://www.w3.org/1999/xlink" x="0px" y="0px"
	 viewBox="0 0 85.55 67.042" style="enable-background:new 0 0 85.55 67.042;" xml:space="preserve">
<g>
	<path style="fill:#5DA8C3;" d="M81.312,67.042H4.238C1.898,67.042,0,65.144,0,62.804v-8.523c0-2.341,1.898-4.238,4.238-4.238
		h77.073c2.341,0,4.238,1.898,4.238,4.238v8.523C85.55,65.144,83.653,67.042,81.312,67.042z"/>
	<path style="fill:#5DA8C3;" d="M81.312,42.021H4.238C1.898,42.021,0,40.123,0,37.783v-8.523c0-2.341,1.898-4.238,4.238-4.238
		h77.073c2.341,0,4.238,1.898,4.238,4.238v8.523C85.55,40.123,83.653,42.021,81.312,42.021z"/>
	<path style="fill:#5DA8C3;" d="M81.312,17H4.238C1.898,17,0,15.102,0,12.762V4.238C0,1.898,1.898,0,4.238,0h77.073
		c2.341,0,4.238,1.898,4.238,4.238v8.523C85.55,15.102,83.653,17,81.312,17z"/>
</g>
</svg>
