<?xml version="1.0" encoding="iso-8859-1"?>
<!-- Generator: Adobe Illustrator 28.0.0, SVG Export Plug-In . SVG Version: 6.00 Build 0)  -->
<svg version="1.1" id="Layer_1" xmlns="http://www.w3.org/2000/svg" xmlns:xlink="http://www.w3.org/1999/xlink" x="0px" y="0px"
	 viewBox="0 0 85.549 44.969" style="enable-background:new 0 0 85.549 44.969;" xml:space="preserve">
<g>
	<path style="fill:#A0A0A0;" d="M81.312,5.683H4.238C1.898,5.683,0,5.049,0,4.267v-2.85C0,0.635,1.898,0,4.238,0h77.073
		c2.341,0,4.238,0.635,4.238,1.417v2.849C85.55,5.049,83.653,5.683,81.312,5.683z"/>
	<path style="fill:#A0A0A0;" d="M81.312,25.326H4.238C1.898,25.326,0,24.692,0,23.909v-2.85c0-0.782,1.898-1.417,4.238-1.417h77.073
		c2.341,0,4.238,0.635,4.238,1.417v2.849C85.55,24.692,83.653,25.326,81.312,25.326z"/>
	<path style="fill:#A0A0A0;" d="M81.312,44.969H4.238C1.898,44.969,0,44.334,0,43.552v-2.85c0-0.782,1.898-1.417,4.238-1.417h77.073
		c2.341,0,4.238,0.635,4.238,1.417v2.849C85.55,44.334,83.653,44.969,81.312,44.969z"/>
</g>
</svg>
